<?xml version='1.0' encoding='iso-8859-1'?>
<!DOCTYPE svg PUBLIC '-//W3C//DTD SVG 1.1//EN' 'http://www.w3.org/Graphics/SVG/1.1/DTD/svg11.dtd'>
<svg version="1.1" xmlns="http://www.w3.org/2000/svg" viewBox="0 0 297 297" xmlns:xlink="http://www.w3.org/1999/xlink" enable-background="new 0 0 297 297">
  <path d="m290.408,67.763l-58.132-58.133c-12.84-12.84-33.733-12.84-46.576-1.77636e-15l-176.076,176.077c-6.202,6.203-9.618,14.474-9.618,23.288 0,8.815 3.416,17.085 9.618,23.288l58.131,58.131c4.39,4.39 10.158,6.585 15.925,6.585s11.535-2.195 15.925-6.585l.256-.256c3.993-3.993 6.582-9.262 6.918-14.898 0.39-6.53-1.975-12.734-6.555-17.315 0,0-24.475-24.476-24.521-24.525-1.197-1.282-1.141-3.289 0.099-4.53l10.899-10.91c1.241-1.242 3.25-1.298 4.533-0.1 0.05,0.046 24.14,24.134 24.14,24.134 8.624,8.623 22.671,9.285 31.614,0.993 9.402-8.718 9.611-23.468 0.626-32.454 0,0-24.475-24.476-24.52-24.524-1.198-1.281-1.142-3.289 0.098-4.53l10.9-10.91c1.241-1.242 3.248-1.298 4.532-0.101 0.05,0.047 24.53,24.525 24.53,24.525 8.782,8.781 23.068,8.781 31.851,0 8.781-8.782 8.781-23.069 0-31.85 0,0-24.41-24.408-24.424-24.422-1.227-1.253-1.143-3.288 0.096-4.529l10.909-10.918c1.241-1.242 3.278-1.326 4.532-0.097 0.015,0.015 24.036,24.036 24.036,24.036 8.624,8.624 22.671,9.285 31.614,0.993 9.402-8.718 9.611-23.469 0.626-32.454 0,0-24.474-24.476-24.519-24.524-1.199-1.281-1.143-3.29 0.098-4.531l10.899-10.909c1.241-1.242 3.248-1.298 4.532-0.101 0.05,0.047 24.53,24.525 24.53,24.525 4.579,4.578 10.781,6.943 17.31,6.555 5.639-0.335 10.909-2.923 14.903-6.917l.257-.257c8.785-8.782 8.785-23.069 0.004-31.85zm-14.154,17.696l-.62,.62c-0.978,0.977-2.567,0.977-3.543,0l-24.38-24.38c-9.106-9.104-23.288-9.734-31.618-1.404l-13.633,13.632c-4.193,4.192-6.312,10.141-5.814,16.322 0.455,5.666 3.019,11.098 7.218,15.298l24.38,24.38c0.977,0.976 0.977,2.567 0,3.543-0.975,0.977-2.567,0.977-3.542,0l-24.38-24.38c-9.104-9.105-23.288-9.734-31.619-1.405l-13.635,13.635c-8.328,8.33-7.698,22.513 1.405,31.619l24.381,24.38c0.976,0.976 0.976,2.566 0,3.542-0.977,0.978-2.566,0.976-3.543,0l-24.38-24.38c-4.2-4.199-9.632-6.762-15.298-7.218-6.169-0.497-12.129,1.621-16.321,5.813l-13.634,13.634c-4.192,4.192-6.311,10.141-5.814,16.321 0.455,5.666 3.02,11.099 7.219,15.298l24.38,24.38c0.977,0.976 0.977,2.567 0,3.543-0.975,0.977-2.567,0.977-3.542,0l-24.381-24.379c-9.102-9.103-23.286-9.736-31.619-1.406l-13.633,13.634c-4.193,4.192-6.312,10.141-5.814,16.321 0.455,5.666 3.019,11.098 7.218,15.299l24.38,24.38c0.607,0.606 0.734,1.298 0.734,1.771 0,0.473-0.127,1.165-0.734,1.771l-.62,.62c-0.975,0.977-2.567,0.977-3.542,0l-58.132-58.131c-2.422-2.422-3.755-5.666-3.755-9.133 0-3.469 1.334-6.712 3.756-9.134l176.074-176.081c2.52-2.519 5.827-3.777 9.135-3.777 3.308,0 6.617,1.26 9.134,3.777l58.131,58.132c0.979,0.977 0.979,2.566 0.001,3.543z"/>
</svg>
