<?xml version='1.0' encoding='iso-8859-1'?>
<svg version="1.1" xmlns="http://www.w3.org/2000/svg" viewBox="0 0 470.67 470.67" xmlns:xlink="http://www.w3.org/1999/xlink" enable-background="new 0 0 470.67 470.67">
  <g>
    <path d="m359.085,436.92c22.688,0 44.203-8.663 60.583-24.392 4.335-4.162 6.79-9.764 6.912-15.772s-2.104-11.705-6.266-16.04c-4.161-4.335-9.762-6.79-15.771-6.912-5.985-0.108-11.707,2.104-16.042,6.266-7.96,7.642-18.407,11.851-29.417,11.851-23.435,0-42.5-19.065-42.5-42.5s19.065-42.5 42.5-42.5c11.01,0 21.457,4.209 29.417,11.85 4.335,4.162 10.042,6.386 16.039,6.267 6.01-0.122 11.611-2.576 15.772-6.912 4.163-4.335 6.389-10.031 6.267-16.04s-2.577-11.61-6.912-15.771c-16.38-15.729-37.896-24.393-60.583-24.393-17.613,0-34.612,5.24-49.16,15.154-3.423,2.332-4.307,6.998-1.974,10.421 2.332,3.424 6.999,4.308 10.421,1.974 12.047-8.209 26.125-12.549 40.713-12.549 18.796,0 36.621,7.178 50.194,20.212 1.445,1.388 2.264,3.254 2.304,5.257 0.041,2.003-0.701,3.901-2.089,5.347s-3.254,2.264-5.257,2.304c-1.963,0.03-3.902-0.701-5.347-2.089-10.768-10.337-24.904-16.03-39.806-16.03-31.706,0-57.5,25.794-57.5,57.5s25.794,57.5 57.5,57.5c14.901,0 29.038-5.693 39.806-16.031 1.446-1.386 3.309-2.129 5.348-2.088 2.002,0.041 3.869,0.858 5.257,2.304 1.387,1.445 2.129,3.344 2.088,5.347-0.04,2.003-0.858,3.869-2.304,5.258-13.573,13.033-31.398,20.211-50.194,20.211-39.977,0-72.5-32.523-72.5-72.5 0-14.588 4.34-28.666 12.549-40.712 2.333-3.423 1.449-8.089-1.974-10.421s-8.089-1.449-10.421,1.974c-9.914,14.547-15.154,31.546-15.154,49.159 0.001,48.244 39.253,87.496 87.501,87.496z"/>
    <path d="m264.335,194.325c2.157,5.609 6.37,10.043 11.864,12.483 2.924,1.3 6.023,1.951 9.129,1.951 2.729,0 5.462-0.503 8.084-1.512 11.579-4.453 17.376-17.497 12.923-29.077l-50-129.999c-3.317-8.628-11.757-14.424-21-14.424-9.242,0-17.682,5.796-21,14.423l-7.022,18.26c-1.487,3.866 0.441,8.206 4.308,9.692 3.869,1.488 8.205-0.442 9.692-4.308l7.022-18.26c1.106-2.875 3.919-4.808 7-4.808s5.895,1.932 7,4.808l50,130c1.484,3.859-0.448,8.208-4.309,9.692-1.868,0.72-3.907,0.666-5.736-0.146-1.832-0.813-3.236-2.292-3.955-4.161l-21.281-55.331c-1.113-2.896-3.895-4.806-6.996-4.808l-29.432-.015c-3.107,0-5.89,1.911-7.004,4.808l-21.287,55.346c-1.107,2.878-3.921,4.812-7.003,4.812-0.916,0-1.82-0.169-2.689-0.504-1.87-0.72-3.348-2.123-4.161-3.954-0.813-1.83-0.866-3.868-0.146-5.738l32.208-83.74c1.487-3.866-0.441-8.205-4.308-9.692-3.87-1.489-8.206,0.442-9.692,4.308l-32.208,83.74c-2.158,5.609-2.002,11.724 0.438,17.216 2.441,5.491 6.875,9.704 12.482,11.86 2.593,0.999 5.311,1.505 8.076,1.505 9.243,0 17.684-5.798 21.003-14.427l19.438-50.535 19.129,.009 19.433,50.526z"/>
    <path d="m232.157,113.796c0.004,0 6.358-0.003 6.358-0.003 2.47-0.001 4.781-1.219 6.18-3.256 1.397-2.036 1.703-4.631 0.816-6.937l-3.177-8.26c-1.114-2.896-3.896-4.808-7-4.808s-5.886,1.911-7,4.808l-3.178,8.263c-0.888,2.307-0.581,4.903 0.818,6.939s3.713,3.254 6.183,3.254z"/>
    <path d="m189.085,316.913c0-30.323-23.94-54.993-53.366-54.993h-59.134c-12.406,0-22.5,10.094-22.5,22.5 0,4.143 3.357,7.5 7.5,7.5s7.5-3.357 7.5-7.5c0-4.136 3.364-7.5 7.5-7.5h59.134c21.155,0 38.366,17.94 38.366,39.993 0,10.248-3.733,20.002-10.514,27.464-2.599,2.86-2.599,7.227-0.001,10.087 6.78,7.464 10.515,17.221 10.515,27.471 0,22.048-17.211,39.985-38.366,39.985h-59.134c-4.136,0-7.5-3.364-7.5-7.5v-100c0-4.143-3.357-7.5-7.5-7.5s-7.5,3.357-7.5,7.5v100c0,12.406 10.094,22.5 22.5,22.5h59.134c29.426,0 53.366-24.666 53.366-54.985 0-11.79-3.636-23.118-10.344-32.514 6.707-9.393 10.344-20.72 10.344-32.508z"/>
    <path d="m91.585,341.942h42.964c0.195,0 0.391-0.008 0.585-0.022 0.193-0.016 0.389-0.022 0.585-0.022 12.884,0 23.366-11.208 23.366-24.984 0-13.781-10.482-24.993-23.366-24.993h-44.134c-4.143,0-7.5,3.357-7.5,7.5v35.022c0,4.142 3.357,7.499 7.5,7.499zm7.5-35.022h36.634c4.613,0 8.366,4.483 8.366,9.993 0,5.506-3.753,9.984-8.366,9.984-0.479,0-0.96,0.015-1.432,0.045h-35.202v-20.022z"/>
    <path d="m84.085,399.42c0,4.143 3.357,7.5 7.5,7.5h44.134c12.884,0 23.366-11.208 23.366-24.985 0-13.78-10.482-24.992-23.366-24.992h-44.134c-4.143,0-7.5,3.357-7.5,7.5v34.977zm15-27.478h36.634c4.613,0 8.366,4.482 8.366,9.992 0,5.506-3.753,9.985-8.366,9.985h-36.634v-19.977z"/>
    <path d="m462.835,228.17h-106.25v-220.67c0-4.143-3.357-7.5-7.5-7.5h-227.5c-4.143,0-7.5,3.357-7.5,7.5v220.67h-106.25c-4.143,0-7.5,3.357-7.5,7.5v227.5c0,4.143 3.357,7.5 7.5,7.5h455c4.143,0 7.5-3.357 7.5-7.5v-227.5c0-4.143-3.357-7.5-7.5-7.5zm-333.75-213.17h212.5v213.17h-212.5v-213.17zm-113.75,228.17h212.5v212.5h-212.5v-212.5zm440,212.5h-212.5v-212.5h212.5v212.5z"/>
  </g>
</svg>
