<?xml version="1.0" encoding="iso-8859-1"?>
<!-- Generator: Adobe Illustrator 19.0.0, SVG Export Plug-In . SVG Version: 6.00 Build 0)  -->
<svg version="1.1" id="Layer_1" xmlns="http://www.w3.org/2000/svg" xmlns:xlink="http://www.w3.org/1999/xlink" x="0px" y="0px"
	 viewBox="0 0 512 512" style="enable-background:new 0 0 512 512;" xml:space="preserve">
<g>
	<g>
		<g>
			<path d="M497.126,124.112L383.407,3.887C381.06,1.406,377.795,0,374.379,0H344.91c-5.424,0-10.223,3.519-11.853,8.693
				c-10.543,33.464-42.239,56.834-77.078,56.834c-34.84,0-66.535-23.372-77.077-56.834C177.272,3.519,172.473,0,167.049,0H137.58
				c-3.416,0-6.682,1.407-9.03,3.888L14.871,124.113c-4.623,4.889-4.515,12.568,0.242,17.326l55.77,56.006
				c2.33,2.33,5.49,3.876,8.787,3.876c0.003,0,0.006,0,0.009,0c3.299,0,6.472-1.553,8.801-3.89l35.793-36.118v296.629
				c0,29.808,24.232,54.058,54.038,54.058h6.214c29.808,0,54.078-24.25,54.078-54.058V346.718c0-9.594,7.804-17.398,17.398-17.398
				s17.398,7.804,17.398,17.398v111.223c0,29.808,24.076,54.058,53.883,54.058h6.214c29.808,0,54.233-24.25,54.233-54.058V161.282
				l35.779,35.839c4.849,4.857,12.711,4.863,17.567,0.016l55.806-55.689C501.646,136.692,501.754,129.004,497.126,124.112z
				 M213.748,457.942c0,16.103-13.121,29.204-29.224,29.204h-6.214c-16.103,0-29.184-13.101-29.184-29.204v-1.864h64.621V457.942z
				 M362.874,457.942c0,16.103-13.276,29.204-29.379,29.204h-6.214c-16.103,0-29.029-13.101-29.029-29.204v-1.864h64.621V457.942z
				 M432.306,170.768l-48.231-48.298c-3.552-3.558-8.888-4.627-13.536-2.702c-4.645,1.922-7.665,6.455-7.665,11.483v299.972h-64.621
				v-84.505c0-23.298-18.954-42.252-42.252-42.252s-42.252,18.954-42.252,42.252v84.505h-64.621V131.251
				c0-5.029-3.041-9.563-7.69-11.484c-4.649-1.922-10-0.852-13.552,2.709L79.66,170.833l-38.425-38.424L142.933,24.854h15.435
				c16.23,39,55.128,65.527,97.612,65.527c42.485,0,81.383-26.527,97.613-65.527h15.436L470.754,132.4L432.306,170.768z"/>
			<path d="M326.815,166.524h-4.228c-4.875-20.519-23.343-35.831-45.332-35.831c-25.697,0-46.602,20.905-46.602,46.602
				c0,5.115,0.816,10.106,2.403,14.836c-14.568,3.211-35.99-3.191-43.782-6.35c-3.833-1.567-8.194-1.122-11.632,1.186
				c-3.437,2.308-5.5,6.176-5.5,10.317c0,41.685,33.89,75.598,75.547,75.598c41.58,0,75.423-33.883,75.546-75.577
				c0.039-1.096,0.117-3.328,0.205-5.925h3.374c6.864,0,12.427-5.564,12.427-12.427S333.679,166.524,326.815,166.524z
				 M298.389,196.635c-0.005,0.147-0.008,0.293-0.008,0.44c0,28.094-22.74,50.951-50.693,50.951
				c-21.716,0-40.286-13.741-47.492-32.992c17.046,3.826,40.931,5.685,57.228-7.492c0.093-0.072,0.188-0.148,0.261-0.206
				c5.161-4.203,6.094-11.726,2.118-17.063c-2.81-3.769-4.295-8.258-4.295-12.978c0-11.991,9.757-21.748,21.748-21.748
				s21.748,9.757,21.748,21.748C299.003,178.565,298.691,188.126,298.389,196.635z"/>
		</g>
	</g>
</g>
<g>
</g>
<g>
</g>
<g>
</g>
<g>
</g>
<g>
</g>
<g>
</g>
<g>
</g>
<g>
</g>
<g>
</g>
<g>
</g>
<g>
</g>
<g>
</g>
<g>
</g>
<g>
</g>
<g>
</g>
</svg>
