<?xml version="1.0" encoding="iso-8859-1"?>
<!-- Generator: Adobe Illustrator 19.0.0, SVG Export Plug-In . SVG Version: 6.00 Build 0)  -->
<svg version="1.1" id="Layer_1" xmlns="http://www.w3.org/2000/svg" xmlns:xlink="http://www.w3.org/1999/xlink" x="0px" y="0px"
	 viewBox="0 0 512 512" style="enable-background:new 0 0 512 512;" xml:space="preserve">
<g transform="translate(1 1)">
	<g>
		<path d="M502.467,310.635h-76.8H357.4h-51.2v-102.4c0-20.48-5.973-36.693-18.773-46.933c-17.92-14.507-40.96-12.8-45.227-12.8
			H133.827c-24.747,0-40.107-4.267-46.08-13.653c-6.827-10.24,0-24.747,0-24.747c1.707-3.413,0.853-7.68-1.707-11.093
			c-2.56-2.56-7.68-2.56-11.093-0.853c-1.707,1.707-52.907,29.867-58.027,68.267c-1.737,11.577,0.86,22.758,7.761,33.283
			c-0.028,0-0.053-0.003-0.081-0.003c-5.12,0-8.533,3.413-8.533,8.533v104.311C5.953,316.504-1,326.226-1,337.941v47.787
			c0,15.36,11.947,27.307,27.307,27.307H357.4h68.267h76.8c5.12,0,8.533-3.413,8.533-8.533v-85.333
			C511,314.048,507.587,310.635,502.467,310.635z M289.133,216.768v93.867h-17.067v-93.867H289.133z M237.933,310.635v-93.867H255
			v93.867H237.933z M203.8,310.635v-93.867h17.067v93.867H203.8z M169.667,310.635v-93.867h17.067v93.867H169.667z M135.533,310.635
			v-93.867H152.6v93.867H135.533z M101.4,310.635v-93.867h17.067v93.867H101.4z M67.267,310.635v-93.867h17.067v93.867H67.267z
			 M34.84,168.981c2.56-17.92,18.773-33.28,31.573-43.52c0,5.973,2.56,11.947,5.973,17.92c9.387,14.507,30.72,22.187,61.44,22.187
			H242.2h0.853c0,0,18.773-1.707,31.573,8.533c7.68,5.973,11.947,14.507,12.8,25.6H46.787
			C37.4,189.461,33.133,179.221,34.84,168.981z M37.4,214.208c1.707,1.707,3.413,2.56,5.973,2.56H50.2v93.867H33.133V210.098
			C34.483,211.481,35.887,212.854,37.4,214.208z M16.067,385.728v-47.787c0-5.973,4.267-10.24,10.24-10.24c0,0,184.515,0,322.56,0
			v68.267H26.307C20.333,395.968,16.067,391.701,16.067,385.728z M365.933,395.968v-68.267c20.357,0,37.144,0,51.2,0v68.267H365.933
			z M493.933,395.968H434.2v-68.267c13.311,0,59.733,0,59.733,0V395.968z"/>
	</g>
</g>
<g>
</g>
<g>
</g>
<g>
</g>
<g>
</g>
<g>
</g>
<g>
</g>
<g>
</g>
<g>
</g>
<g>
</g>
<g>
</g>
<g>
</g>
<g>
</g>
<g>
</g>
<g>
</g>
<g>
</g>
</svg>
