<?xml version="1.0" encoding="iso-8859-1"?>
<!-- Generator: Adobe Illustrator 19.0.0, SVG Export Plug-In . SVG Version: 6.00 Build 0)  -->
<svg version="1.1" id="Layer_1" xmlns="http://www.w3.org/2000/svg" xmlns:xlink="http://www.w3.org/1999/xlink" x="0px" y="0px"
	 viewBox="0 0 512 512" style="enable-background:new 0 0 512 512;" xml:space="preserve">
<g>
	<g>
		<g>
			<path d="M383.78,53.735h-5.947V18.756C377.833,8.414,369.419,0,359.077,0h-33.12c-10.342,0-18.756,8.414-18.756,18.756v34.978
				H204.8V18.756C204.8,8.414,196.386,0,186.044,0h-33.12c-10.342,0-18.756,8.414-18.756,18.756v34.978h-5.947
				c-32.066,0-58.154,26.088-58.154,58.154v68.537v273.42c0,32.066,26.088,58.154,58.154,58.154h255.559
				c32.066,0,58.154-26.088,58.154-58.154v-273.42v-68.537C441.935,79.822,415.847,53.735,383.78,53.735z M322.408,18.756
				c0-1.957,1.592-3.548,3.548-3.548h33.12c1.957,0,3.549,1.592,3.549,3.548v34.978h-40.217V18.756z M149.376,18.756
				c0-1.957,1.592-3.548,3.549-3.548h33.12c1.957,0,3.549,1.592,3.549,3.548v34.978h-40.217V18.756z M383.78,496.792h-255.56
				c-23.681,0-42.946-19.265-42.946-42.946V219.593c10.643,11.658,25.954,18.986,42.946,18.986h20.226v19.956h-21.038v44.272h21.038
				v15.546c0,11.6,9.438,21.038,21.038,21.038c11.6,0,21.038-9.438,21.038-21.038v-15.546h21.038v-44.272h-21.038v-19.956h130.957
				v19.956h-21.038v44.272h21.038v15.546c0,11.6,9.438,21.038,21.038,21.038s21.038-9.438,21.038-21.038v-15.546h21.038v-44.272
				h-21.038v-19.956h20.226c16.992,0,32.304-7.327,42.946-18.986v234.253h0.001C426.727,477.527,407.461,496.792,383.78,496.792z
				 M175.314,238.579v19.956h-11.659v-19.956H175.314z M163.655,223.371v-50.508h11.659v50.508H163.655z M190.522,273.743h5.83
				v13.856h-5.83v-0.001h-42.075l-5.83,0.001v-13.856h5.83H190.522z M175.314,302.807v15.546c0,3.215-2.616,5.83-5.83,5.83
				s-5.83-2.615-5.83-5.83v-15.546H175.314z M348.346,238.579v19.956h-11.659v-19.956H348.346z M336.687,223.371v-50.508h11.659
				v50.508H336.687z M363.554,273.743h5.83v13.856h-5.83v-0.001h-42.075l-5.83,0.001v-13.856h5.83H363.554z M348.346,302.807v15.546
				c0,3.215-2.616,5.83-5.83,5.83c-3.214,0-5.83-2.615-5.83-5.83v-15.546H348.346z M426.727,180.426
				c0,23.68-19.265,42.945-42.946,42.945h-20.226v-65.715H321.48v35.3H242.82v15.208h78.658v15.208H190.522v-15.208h32.021v-15.208
				h-32.022v-35.3h-42.075v65.715h-20.226c-23.681,0-42.946-19.265-42.946-42.945v-68.537c0-23.681,19.265-42.946,42.946-42.946
				h5.947H204.8h102.4h70.633h5.947c23.681,0,42.946,19.265,42.946,42.946V180.426z"/>
			<path d="M383.78,84.151h-27.829v15.208h27.829c6.909,0,12.53,5.621,12.53,12.53v53.371h15.208v-53.371
				C411.519,96.594,399.076,84.151,383.78,84.151z"/>
			<path d="M345.897,360.597H166.104c-21.523,0-39.034,17.51-39.034,39.034v32.781c0,21.523,17.51,39.034,39.034,39.034h179.791
				c21.523,0,39.034-17.51,39.034-39.034v-32.781C384.93,378.107,367.42,360.597,345.897,360.597z M345.897,456.238H166.104
				c-13.138,0-23.826-10.688-23.826-23.826v-32.781c0-13.138,10.688-23.826,23.826-23.826h179.791
				c13.138,0,23.826,10.688,23.826,23.826v32.781h0.001C369.722,445.549,359.034,456.238,345.897,456.238z"/>
			<rect x="218.488" y="408.414" width="128.081" height="15.208"/>
			<rect x="165.432" y="408.414" width="32.778" height="15.208"/>
		</g>
	</g>
</g>
<g>
</g>
<g>
</g>
<g>
</g>
<g>
</g>
<g>
</g>
<g>
</g>
<g>
</g>
<g>
</g>
<g>
</g>
<g>
</g>
<g>
</g>
<g>
</g>
<g>
</g>
<g>
</g>
<g>
</g>
</svg>
